<?xml version="1.0" encoding="UTF-8"?>
<svg width="700pt" height="700pt" version="1.1" viewBox="0 0 700 700" xmlns="http://www.w3.org/2000/svg">
 <g>
  <path d="m350 393.75c-18.039 0.046875-35.395-6.8906-48.43-19.355-13.035-12.465-20.742-29.492-21.5-47.516-0.75781-18.02 5.4883-35.637 17.43-49.152v-58.977c0-18.758 10.008-36.09 26.25-45.465 16.242-9.3789 36.258-9.3789 52.5 0 16.242 9.375 26.25 26.707 26.25 45.465v58.977c11.941 13.516 18.188 31.133 17.43 49.152-0.75781 18.023-8.4648 35.051-21.5 47.516-13.035 12.465-30.391 19.402-48.43 19.355zm0-192.5c-4.6406 0-9.0938 1.8438-12.375 5.125s-5.125 7.7344-5.125 12.375v66.113c0 4.9609-2.1055 9.6875-5.793 13.004-7.4258 6.5547-11.691 15.977-11.707 25.883 0 12.504 6.6719 24.059 17.5 30.312 10.828 6.25 24.172 6.25 35 0 10.828-6.2539 17.5-17.809 17.5-30.312-0.015625-9.9062-4.2812-19.328-11.707-25.883-3.6875-3.3164-5.793-8.043-5.793-13.004v-66.113c0-4.6406-1.8438-9.0938-5.125-12.375s-7.7344-5.125-12.375-5.125z"/>
  <path d="m367.5 322.33c0 9.6641-7.8359 17.5-17.5 17.5s-17.5-7.8359-17.5-17.5c0-9.6641 7.8359-17.5 17.5-17.5s17.5 7.8359 17.5 17.5"/>
  <path d="m350 323.75c-4.832 0-8.75-3.918-8.75-8.75v-70c0-4.832 3.918-8.75 8.75-8.75s8.75 3.918 8.75 8.75v70c0 2.3203-0.92188 4.5469-2.5625 6.1875s-3.8672 2.5625-6.1875 2.5625z"/>
  <path d="m350 542.5c-69.621 0-136.39-27.656-185.62-76.883-49.227-49.23-76.883-116-76.883-185.62s27.656-136.39 76.883-185.62c49.23-49.227 116-76.883 185.62-76.883s136.39 27.656 185.62 76.883c49.227 49.23 76.883 116 76.883 185.62-0.078125 69.594-27.762 136.32-76.973 185.53-49.211 49.211-115.93 76.895-185.53 76.973zm0-490c-60.336 0-118.2 23.969-160.87 66.633-42.664 42.664-66.633 100.53-66.633 160.87s23.969 118.2 66.633 160.87c42.664 42.664 100.53 66.633 160.87 66.633s118.2-23.969 160.87-66.633c42.664-42.664 66.633-100.53 66.633-160.87-0.070312-60.316-24.059-118.14-66.711-160.79-42.648-42.652-100.47-66.641-160.79-66.711z"/>
  <path d="m350 490c-55.695 0-109.11-22.125-148.49-61.508-39.383-39.383-61.508-92.797-61.508-148.49s22.125-109.11 61.508-148.49c39.383-39.383 92.797-61.508 148.49-61.508s109.11 22.125 148.49 61.508c39.383 39.383 61.508 92.797 61.508 148.49-0.058594 55.676-22.203 109.05-61.574 148.43-39.371 39.371-92.75 61.516-148.43 61.574zm0-385c-46.414 0-90.926 18.438-123.74 51.258-32.82 32.816-51.258 77.328-51.258 123.74s18.438 90.926 51.258 123.74c32.816 32.82 77.328 51.258 123.74 51.258s90.926-18.438 123.74-51.258c32.82-32.816 51.258-77.328 51.258-123.74-0.050781-46.398-18.504-90.879-51.312-123.69s-77.289-51.262-123.69-51.312z"/>
 </g>
</svg>
